<svg
    xmlns="http://www.w3.org/2000/svg"
    xmlns:xlink="http://www.w3.org/1999/xlink"
    version="1.1"
    x="0px"
    y="0px"
    viewBox="0 0 100 125"
    style="enable-background:new 0 0 100 100;"
    xml:space="preserve">
    <path d="M50,20c0.4,0,0.9,0.2,1.2,0.5l27.5,31.9c0.2,0.3,0.4,0.6,0.4,1c0,0.2,0,0.4-0.1,0.6c-0.2,0.5-0.8,0.9-1.4,0.9H63.2v23.5  c0,0.8-0.7,1.5-1.5,1.5H38.3c-0.8,0-1.5-0.7-1.5-1.5V54.9H22.5c-0.6,0-1.1-0.3-1.4-0.9c-0.2-0.5-0.2-1.2,0.2-1.6l27.5-31.9  C49.1,20.2,49.6,20,50,20z"/>
</svg>